<?xml version="1.0" standalone="no"?>
<!DOCTYPE svg PUBLIC "-//W3C//DTD SVG 20010904//EN"
 "http://www.w3.org/TR/2001/REC-SVG-20010904/DTD/svg10.dtd">
<svg version="1.0" xmlns="http://www.w3.org/2000/svg"
 width="121.000000pt" height="135.000000pt" viewBox="0 0 121.000000 135.000000"
 preserveAspectRatio="xMidYMid meet">

<g transform="translate(0.000000,135.000000) scale(0.100000,-0.100000)"
fill="#000000" stroke="none">
<path d="M565 1263 c-35 -9 -87 -55 -101 -89 -29 -69 -14 -132 45 -188 25 -24
42 -30 88 -34 48 -3 64 0 92 20 72 49 98 127 68 199 -28 67 -120 112 -192 92z"/>
<path d="M316 840 l-68 -70 -84 0 c-71 0 -87 -3 -104 -20 -27 -27 -25 -56 5
-85 22 -23 32 -25 120 -25 110 0 133 9 188 69 20 23 39 41 41 41 2 0 10 -41
17 -90 l12 -90 166 2 165 3 7 40 c4 22 10 62 14 89 l7 49 46 -46 c26 -24 57
-50 69 -56 12 -6 65 -11 118 -11 89 0 98 2 120 25 30 29 32 54 5 83 -18 19
-31 22 -105 22 l-85 0 -71 70 -71 70 -57 0 c-57 0 -57 0 -96 -51 -31 -41 -40
-48 -47 -35 -12 21 -36 20 -40 -1 -2 -12 -14 -3 -41 35 l-39 52 -62 0 -63 0
-67 -70z"/>
<path d="M580 885 c0 -10 10 -15 30 -15 20 0 30 5 30 15 0 10 -10 15 -30 15
-20 0 -30 -5 -30 -15z"/>
<path d="M64 510 c-12 -5 -25 -13 -28 -19 -10 -16 36 -41 76 -41 l38 0 0 -215
0 -215 460 0 460 0 0 214 0 213 46 6 c25 2 53 11 61 19 12 13 12 17 -3 29 -14
12 -108 14 -553 16 -295 1 -546 -2 -557 -7z m600 -154 c72 -30 101 -108 67
-179 -25 -51 -65 -77 -121 -77 -60 0 -98 24 -122 77 -23 52 -19 97 14 138 39
50 102 66 162 41z"/>
<path d="M580 295 c0 -33 -2 -35 -35 -35 -32 0 -35 -2 -35 -30 0 -28 3 -30 35
-30 33 0 35 -2 35 -35 0 -32 2 -35 30 -35 28 0 30 3 30 35 0 33 2 35 35 35 32
0 35 2 35 30 0 28 -3 30 -35 30 -33 0 -35 2 -35 35 0 32 -2 35 -30 35 -28 0
-30 -3 -30 -35z"/>
</g>
</svg>
